<svg width="32" height="32" viewBox="0 0 32 32" fill="none" xmlns="http://www.w3.org/2000/svg">
  <rect width="32" height="32" rx="6" fill="#1F3CFF"/>
  <path d="M16 4C8.26801 4 2 10.268 2 18C9.73199 18 16 11.732 16 4Z" fill="white"/>
  <path d="M16 28C23.732 28 30 21.732 30 14C22.268 14 16 20.268 16 28Z" fill="white"/>
  <path d="M16 4C23.732 4 30 10.268 30 18C22.268 18 16 11.732 16 4Z" fill="white"/>
  <path d="M16 28C8.26801 28 2 21.732 2 14C9.73199 14 16 20.268 16 28Z" fill="white"/>
  <circle cx="16" cy="16" r="3" fill="white"/>
</svg>
