<svg width="64" height="64" viewBox="0 0 64 64" fill="none" xmlns="http://www.w3.org/2000/svg">
<rect width="64" height="64" rx="13.6" fill="#00143C"/>
<path fill-rule="evenodd" clip-rule="evenodd" d="M45.0464 46.9933H18.4759C15.823 46.9933 13.6724 44.8434 13.6724 42.1914C13.6724 39.5389 15.8226 37.3883 18.4759 37.3869L36.5504 37.3813C38.3777 37.3804 40.0664 38.3554 40.9789 39.9381L45.0464 46.9933Z" fill="url(#paint0_linear_1204_7054)"/>
<path fill-rule="evenodd" clip-rule="evenodd" d="M35.6226 18.0084L48.2689 39.9412C49.5953 42.2386 48.8087 45.1761 46.512 46.5021C44.2149 47.8283 41.2773 47.0415 39.9495 44.7444L31.5464 30.1721C30.6319 28.5901 30.6319 26.6401 31.5463 25.0585L35.6226 18.0084Z" fill="url(#paint1_linear_1204_7054)"/>
<path fill-rule="evenodd" clip-rule="evenodd" d="M16.6428 35.7613L27.147 17.7272C28.4735 15.4297 31.4107 14.6422 33.7074 15.9683C36.0045 17.2945 36.7919 20.2319 35.4664 22.5304L29.2151 33.2095C28.3022 34.7925 26.6135 35.7675 24.7866 35.7664L16.6428 35.7613Z" fill="url(#paint2_linear_1204_7054)"/>
<defs>
<linearGradient id="paint0_linear_1204_7054" x1="40.9424" y1="41.6473" x2="12.6464" y2="41.5393" gradientUnits="userSpaceOnUse">
<stop stop-color="#00143C"/>
<stop offset="1" stop-color="#1E6EFA"/>
</linearGradient>
<linearGradient id="paint1_linear_1204_7054" x1="41.0504" y1="36.2471" x2="32.7884" y2="3.73914" gradientUnits="userSpaceOnUse">
<stop stop-color="#FFC5CE"/>
<stop offset="1" stop-color="#FF3C5A"/>
</linearGradient>
<linearGradient id="paint2_linear_1204_7054" x1="12.5928" y1="42.3493" x2="34.2468" y2="27.3913" gradientUnits="userSpaceOnUse">
<stop stop-color="#1E6EFA"/>
<stop offset="1" stop-color="#FF3C5A"/>
</linearGradient>
</defs>
</svg>
