<svg width="341" height="60" viewBox="0 0 341 60" fill="none" xmlns="http://www.w3.org/2000/svg">
<path d="M92.151 50.53C89.819 50.53 87.7343 49.9647 85.897 48.834C84.0597 47.668 82.5933 46.0957 81.498 44.117C80.438 42.1383 79.908 39.9123 79.908 37.439C79.908 34.9657 80.438 32.7397 81.498 30.761C82.5933 28.7823 84.0597 27.21 85.897 26.044C87.7343 24.878 89.819 24.295 92.151 24.295C94.0237 24.295 95.7197 24.7013 97.239 25.514C98.7583 26.2913 99.9773 27.3867 100.896 28.8C101.85 30.178 102.38 31.7857 102.486 33.623V41.202C102.38 43.004 101.868 44.6117 100.949 46.025C100.03 47.4383 98.8113 48.5513 97.292 49.364C95.7727 50.1413 94.059 50.53 92.151 50.53ZM92.946 46.025C94.536 46.025 95.914 45.654 97.08 44.912C98.2813 44.17 99.2177 43.163 99.889 41.891C100.56 40.5837 100.896 39.0997 100.896 37.439C100.896 35.7077 100.543 34.206 99.836 32.934C99.1647 31.662 98.2283 30.655 97.027 29.913C95.861 29.171 94.483 28.8 92.893 28.8C91.303 28.8 89.9073 29.171 88.706 29.913C87.5047 30.655 86.5507 31.6797 85.844 32.987C85.1727 34.259 84.837 35.7253 84.837 37.386C84.837 39.082 85.1727 40.5837 85.844 41.891C86.5507 43.163 87.5047 44.17 88.706 44.912C89.9427 45.654 91.356 46.025 92.946 46.025ZM105.401 50H100.578V43.216L101.479 37.068L100.578 30.973V12.158H105.401V50ZM123.476 50.53C120.967 50.53 118.706 49.9647 116.692 48.834C114.678 47.668 113.088 46.0957 111.922 44.117C110.756 42.1383 110.173 39.8947 110.173 37.386C110.173 34.9127 110.738 32.6867 111.869 30.708C113.035 28.7293 114.589 27.1747 116.533 26.044C118.511 24.878 120.72 24.295 123.158 24.295C125.49 24.295 127.539 24.825 129.306 25.885C131.108 26.945 132.503 28.4113 133.493 30.284C134.517 32.1567 135.03 34.2767 135.03 36.644C135.03 36.9973 135.012 37.386 134.977 37.81C134.941 38.1987 134.871 38.658 134.765 39.188H113.512V35.213H132.221L130.472 36.75C130.472 35.054 130.171 33.623 129.571 32.457C128.97 31.2557 128.122 30.337 127.027 29.701C125.931 29.0297 124.606 28.694 123.052 28.694C121.426 28.694 119.995 29.0473 118.759 29.754C117.522 30.4607 116.568 31.45 115.897 32.722C115.225 33.994 114.89 35.4957 114.89 37.227C114.89 38.9937 115.243 40.5483 115.95 41.891C116.656 43.1983 117.663 44.223 118.971 44.965C120.278 45.6717 121.78 46.025 123.476 46.025C124.889 46.025 126.179 45.7777 127.345 45.283C128.546 44.7883 129.571 44.0463 130.419 43.057L133.493 46.184C132.291 47.5973 130.807 48.675 129.041 49.417C127.309 50.159 125.454 50.53 123.476 50.53ZM139.701 50V24.825H144.471V50H139.701ZM156.714 50V34.789C156.714 32.9163 156.131 31.45 154.965 30.39C153.834 29.2947 152.403 28.747 150.672 28.747C149.506 28.747 148.463 28.9943 147.545 29.489C146.626 29.9837 145.884 30.6727 145.319 31.556C144.753 32.4393 144.471 33.4993 144.471 34.736L142.51 33.782C142.51 31.874 142.916 30.2133 143.729 28.8C144.577 27.3867 145.725 26.2913 147.174 25.514C148.622 24.7013 150.248 24.295 152.05 24.295C153.816 24.295 155.406 24.6837 156.82 25.461C158.268 26.2383 159.399 27.3337 160.212 28.747C161.06 30.1603 161.484 31.8387 161.484 33.782V50H156.714ZM173.727 50V34.789C173.727 32.9163 173.144 31.45 171.978 30.39C170.847 29.2947 169.434 28.747 167.738 28.747C166.572 28.747 165.512 28.9943 164.558 29.489C163.639 29.9837 162.897 30.6727 162.332 31.556C161.766 32.4393 161.484 33.4993 161.484 34.736L158.781 33.782C158.887 31.8387 159.399 30.178 160.318 28.8C161.272 27.3867 162.491 26.2913 163.975 25.514C165.459 24.7013 167.084 24.295 168.851 24.295C170.688 24.295 172.331 24.6837 173.78 25.461C175.228 26.2383 176.377 27.3337 177.225 28.747C178.108 30.1603 178.55 31.8563 178.55 33.835V50H173.727ZM196.012 50.53C193.538 50.53 191.312 49.947 189.334 48.781C187.355 47.615 185.783 46.0427 184.617 44.064C183.451 42.05 182.868 39.8063 182.868 37.333C182.868 34.895 183.451 32.7043 184.617 30.761C185.783 28.7823 187.355 27.21 189.334 26.044C191.312 24.878 193.538 24.295 196.012 24.295C198.45 24.295 200.658 24.878 202.637 26.044C204.651 27.1747 206.241 28.7293 207.407 30.708C208.573 32.6867 209.156 34.895 209.156 37.333C209.156 39.8063 208.573 42.05 207.407 44.064C206.241 46.0427 204.651 47.615 202.637 48.781C200.658 49.947 198.45 50.53 196.012 50.53ZM196.012 45.919C197.602 45.919 199.015 45.548 200.252 44.806C201.488 44.064 202.46 43.057 203.167 41.785C203.873 40.4777 204.227 38.9937 204.227 37.333C204.227 35.7077 203.856 34.259 203.114 32.987C202.407 31.715 201.435 30.7257 200.199 30.019C198.997 29.277 197.602 28.906 196.012 28.906C194.422 28.906 193.008 29.277 191.772 30.019C190.535 30.7257 189.563 31.715 188.857 32.987C188.15 34.259 187.797 35.7077 187.797 37.333C187.797 38.9937 188.15 40.4777 188.857 41.785C189.563 43.057 190.535 44.064 191.772 44.806C193.008 45.548 194.422 45.919 196.012 45.919ZM223.911 50V42.951H231.755C233.239 42.951 234.405 42.5447 235.253 41.732C236.137 40.884 236.578 39.7887 236.578 38.446C236.578 37.5627 236.384 36.7853 235.995 36.114C235.607 35.4073 235.041 34.8773 234.299 34.524C233.593 34.1353 232.745 33.941 231.755 33.941H223.911V27.104H231.172C232.409 27.104 233.416 26.8037 234.193 26.203C235.006 25.567 235.412 24.5953 235.412 23.288C235.412 21.9807 235.006 21.0267 234.193 20.426C233.416 19.79 232.409 19.472 231.172 19.472H223.911V12.423H233.451C235.783 12.423 237.797 12.8647 239.493 13.748C241.225 14.6313 242.55 15.815 243.468 17.299C244.387 18.783 244.846 20.4613 244.846 22.334C244.846 24.8427 243.981 26.9273 242.249 28.588C240.553 30.2133 238.08 31.2203 234.829 31.609V28.429C238.433 28.853 241.189 30.019 243.097 31.927C245.005 33.7997 245.959 36.167 245.959 39.029C245.959 41.149 245.429 43.0393 244.369 44.7C243.309 46.3253 241.808 47.615 239.864 48.569C237.956 49.523 235.695 50 233.08 50H223.911ZM216.385 50V12.423H225.713V50H216.385ZM261.032 50.53C258.63 50.53 256.492 49.947 254.619 48.781C252.747 47.615 251.28 46.025 250.22 44.011C249.16 41.9617 248.63 39.6473 248.63 37.068C248.63 34.4533 249.16 32.1213 250.22 30.072C251.28 28.0227 252.747 26.4327 254.619 25.302C256.492 24.136 258.63 23.553 261.032 23.553C262.658 23.553 264.142 23.8533 265.484 24.454C266.827 25.0193 267.922 25.832 268.77 26.892C269.654 27.952 270.184 29.1533 270.36 30.496V43.534C270.184 44.912 269.654 46.131 268.77 47.191C267.922 48.2157 266.827 49.0283 265.484 49.629C264.142 50.2297 262.658 50.53 261.032 50.53ZM262.993 42.315C264.513 42.315 265.732 41.8203 266.65 40.831C267.604 39.8417 268.081 38.5697 268.081 37.015C268.081 35.9903 267.869 35.0893 267.445 34.312C267.021 33.5347 266.421 32.9163 265.643 32.457C264.901 31.9977 264.036 31.768 263.046 31.768C262.057 31.768 261.174 31.9977 260.396 32.457C259.654 32.9163 259.054 33.5523 258.594 34.365C258.17 35.1423 257.958 36.0257 257.958 37.015C257.958 38.0397 258.17 38.9583 258.594 39.771C259.018 40.5483 259.619 41.1667 260.396 41.626C261.174 42.0853 262.039 42.315 262.993 42.315ZM267.71 50V43.057L269.035 36.697L267.71 30.443V24.083H276.773V50H267.71ZM298.956 50V35.372C298.956 34.1707 298.602 33.2343 297.896 32.563C297.189 31.8563 296.288 31.503 295.193 31.503C294.451 31.503 293.779 31.662 293.179 31.98C292.613 32.298 292.172 32.7397 291.854 33.305C291.536 33.8703 291.377 34.5593 291.377 35.372L287.773 33.676C287.773 31.5913 288.232 29.807 289.151 28.323C290.069 26.8037 291.324 25.6377 292.914 24.825C294.539 23.977 296.376 23.553 298.426 23.553C300.298 23.553 301.959 23.9947 303.408 24.878C304.892 25.726 306.058 26.8743 306.906 28.323C307.754 29.7717 308.178 31.4147 308.178 33.252V50H298.956ZM282.155 50V24.083H291.377V50H282.155ZM329.696 50L321.534 36.432L329.643 24.083H339.766L329.696 38.022L329.961 34.63L340.296 50H329.696ZM313.054 50V11.363H322.276V50H313.054Z" fill="currentColor"/>
<g clip-path="url(#clip0_2070_18144)">
<path d="M30 0C13.4314 0 0 13.4314 0 30C16.5686 30 30 16.5686 30 0Z" fill="currentColor"/>
<path d="M30 60C46.5686 60 60 46.5686 60 30C43.4314 30 30 43.4314 30 60Z" fill="currentColor"/>
<path d="M30 0C46.5686 0 60 13.4314 60 30C43.4314 30 30 16.5686 30 0Z" fill="currentColor"/>
<path d="M30 60C13.4314 60 -1.44847e-06 46.5686 0 30C16.5686 30 30 43.4314 30 60Z" fill="currentColor"/>
<circle cx="30" cy="30" r="6" fill="currentColor"/>
</g>
<defs>
<clipPath id="clip0_2070_18144">
<rect width="60" height="60" fill="white"/>
</clipPath>
</defs>
</svg>
